<?xml version="1.0" encoding="UTF-8" standalone="no"?><!DOCTYPE svg PUBLIC "-//W3C//DTD SVG 1.1//EN" "http://www.w3.org/Graphics/SVG/1.1/DTD/svg11.dtd"><svg width="100%" height="100%" viewBox="0 0 900 192" version="1.1" xmlns="http://www.w3.org/2000/svg" xmlns:xlink="http://www.w3.org/1999/xlink" xml:space="preserve" xmlns:serif="http://www.serif.com/" style="fill-rule:evenodd;clip-rule:evenodd;stroke-linecap:round;stroke-linejoin:round;stroke-miterlimit:1.5;"><g><g><g><text x="17.102px" y="165px" style="font-family:'EDAshglen-Regular', 'ED Ashglen';font-size:194.083px;fill:#f0f8ff;">N</text><g><path d="M476.109,143.845c13.586,-0 32.994,-10.675 21.737,-45.222c-3.105,-11.645 -7.181,-21.737 -3.881,-23.872c3.687,-1.941 7.181,3.882 9.898,11.063c10.674,-8.734 5.434,-22.32 -8.152,-22.32c-8.151,0 -14.75,4.076 -17.661,10.675c-3.105,5.24 -8.346,14.556 -13.586,21.349l4.464,1.165c1.941,-2.718 4.658,-6.405 7.569,-10.481c0.388,2.329 0.971,4.658 1.941,6.987c3.688,11.063 8.928,21.155 2.135,27.172c-7.181,4.658 -15.915,-3.106 -14.168,-13.974c-19.214,13.974 -11.839,37.458 9.704,37.458Z" style="fill:#f0f8ff;fill-rule:nonzero;"/></g><g><text x="218.949px" y="140.739px" style="font-family:'EDAshglen-Regular', 'ED Ashglen';font-size:194.083px;fill:#f0f8ff;">e</text><text x="288.625px" y="140.739px" style="font-family:'EDAshglen-Regular', 'ED Ashglen';font-size:194.083px;fill:#f0f8ff;">x<tspan x="367.034px " y="140.739px ">u</tspan></text></g><g><path d="M565.775,178.78c29.501,-0 53.567,-37.458 74.917,-73.946c10.674,-2.717 19.796,-6.599 29.5,-9.704c-10.286,20.379 -13.586,41.534 -7.181,57.837c8.928,20.767 43.475,19.02 57.061,-0.777c-15.721,1.553 -24.649,-4.075 -27.754,-13.391c-5.435,-13.586 0.776,-34.547 9.898,-54.344c14.362,-29.888 36.876,-57.254 71.617,-55.896c6.016,0 5.24,-7.375 -0,-8.539c-38.235,-2.329 -71.617,26.395 -94.519,59.583c-1.553,2.135 -2.911,4.464 -4.27,6.793c-8.345,1.747 -17.661,5.24 -28.142,7.569c11.451,-19.99 21.543,-38.816 36.294,-48.714c20.573,-14.557 7.569,-20.185 -6.017,-9.899c-1.358,0.971 -2.911,2.135 -4.464,3.494c-11.645,3.881 -25.036,3.299 -38.234,2.135c-27.172,-2.523 -52.985,-7.375 -61.136,20.961c-7.181,30.083 16.303,42.892 44.445,44.639c-16.886,22.708 -30.471,36.876 -45.804,38.234c-11.839,2.135 -26.395,-1.552 -38.234,-17.661c-9.316,28.918 1.746,51.626 32.023,51.626Zm26.978,-114.897c5.24,-13.78 18.632,-14.169 34.547,-13.198c10.868,0.582 22.708,1.747 33.964,-0.388c-11.451,12.615 -24.454,29.888 -36.099,45.997c-22.32,-0.97 -37.846,-13.974 -32.412,-32.411Z" style="fill:#f0f8ff;fill-rule:nonzero;"/></g><text x="711.532px" y="140.739px" style="font-family:'EDAshglen-Regular', 'ED Ashglen';font-size:194.083px;fill:#f0f8ff;">ue</text></g><g><path d="M534.022,74.292l6.496,19.993l21.022,0l-17.006,12.357l6.494,19.99l-17.006,-12.354l-17.006,12.354l6.495,-19.99l-17.006,-12.357l21.021,0l6.496,-19.993Z" style="fill:#f0f8ff;stroke:#f0f8ff;stroke-width:4.25px;"/></g></g></g></svg>